# xmcd
#
# Track frame offsets: 
#        182
#        15185
#        28220
#        39772
#        51725
#        61140
#        82010
#        92155
#        104020
#        118695
#        131815
#
# Disc length: 1934 seconds
#
# Revision: 4
# Processed by: cddbd v1.5.2PL0 Copyright (c) Steve Scherf et al.
# Submitted via: ExactAudioCopy v0.99pb5
#
DISCID=93078c0b
DTITLE=Various Artist - Blue Suede Sneakers
DYEAR=1995
DGENRE=Rock
TTITLE0=Suzy Bogguss - Stuck On You
TTITLE1=Ann Wilson - That's Allright (Mama)
TTITLE2=Shari Lewis - Hound Dog
TTITLE3=Rodney Crowell - All Shook Up
TTITLE4=Brian Setzer - Ready Teddy
TTITLE5=Shawn Colvin and Nancy Wilson - Love Me Tender
TTITLE6=Ronnie McDowell - Blue Suede Shoes
TTITLE7=Bill Shontz - Teddy Bear
TTITLE8=Joanie Bartels - Return To Sender
TTITLE9=Gary Rosen - Good Luck Charm
TTITLE10=Ronnie Milsap - Johnny B. Goode
EXTD=
EXTT0=
EXTT1=
EXTT2=
EXTT3=
EXTT4=
EXTT5=
EXTT6=
EXTT7=
EXTT8=
EXTT9=
EXTT10=
PLAYORDER=
